<mxfile host="app.diagrams.net" agent="Mozilla/5.0 (Windows NT 10.0; Win64; x64) AppleWebKit/537.36 (KHTML, like Gecko) Chrome/134.0.0.0 Safari/537.36" version="26.1.0">
  <diagram name="Page-1" id="2YBvvXClWsGukQMizWep">
    <mxGraphModel grid="1" page="1" gridSize="10" guides="1" tooltips="1" connect="1" arrows="1" fold="1" pageScale="1" pageWidth="850" pageHeight="1100" math="0" shadow="0">
      <root>
        <mxCell id="0" />
        <mxCell id="1" parent="0" />
        <mxCell id="4NCx9sflUa4Rd-wHTN0A-1" value="Cliente" style="shape=umlLifeline;perimeter=lifelinePerimeter;whiteSpace=wrap;html=1;container=1;dropTarget=0;collapsible=0;recursiveResize=0;outlineConnect=0;portConstraint=eastwest;newEdgeStyle={&quot;curved&quot;:0,&quot;rounded&quot;:0};participant=umlActor;labelPosition=center;verticalLabelPosition=top;align=center;verticalAlign=bottom;" vertex="1" parent="1">
          <mxGeometry x="-740" y="110" width="20" height="240" as="geometry" />
        </mxCell>
        <mxCell id="4NCx9sflUa4Rd-wHTN0A-11" value="" style="html=1;points=[[0,0,0,0,5],[0,1,0,0,-5],[1,0,0,0,5],[1,1,0,0,-5]];perimeter=orthogonalPerimeter;outlineConnect=0;targetShapes=umlLifeline;portConstraint=eastwest;newEdgeStyle={&quot;curved&quot;:0,&quot;rounded&quot;:0};" vertex="1" parent="4NCx9sflUa4Rd-wHTN0A-1">
          <mxGeometry x="5" y="90" width="10" height="30" as="geometry" />
        </mxCell>
        <mxCell id="4NCx9sflUa4Rd-wHTN0A-14" value="" style="html=1;points=[[0,0,0,0,5],[0,1,0,0,-5],[1,0,0,0,5],[1,1,0,0,-5]];perimeter=orthogonalPerimeter;outlineConnect=0;targetShapes=umlLifeline;portConstraint=eastwest;newEdgeStyle={&quot;curved&quot;:0,&quot;rounded&quot;:0};" vertex="1" parent="4NCx9sflUa4Rd-wHTN0A-1">
          <mxGeometry x="5" y="190" width="10" height="30" as="geometry" />
        </mxCell>
        <mxCell id="4NCx9sflUa4Rd-wHTN0A-2" value="Sistema" style="shape=umlLifeline;perimeter=lifelinePerimeter;whiteSpace=wrap;html=1;container=1;dropTarget=0;collapsible=0;recursiveResize=0;outlineConnect=0;portConstraint=eastwest;newEdgeStyle={&quot;curved&quot;:0,&quot;rounded&quot;:0};" vertex="1" parent="1">
          <mxGeometry x="-440" y="100" width="100" height="250" as="geometry" />
        </mxCell>
        <mxCell id="4NCx9sflUa4Rd-wHTN0A-10" value="" style="html=1;points=[[0,0,0,0,5],[0,1,0,0,-5],[1,0,0,0,5],[1,1,0,0,-5]];perimeter=orthogonalPerimeter;outlineConnect=0;targetShapes=umlLifeline;portConstraint=eastwest;newEdgeStyle={&quot;curved&quot;:0,&quot;rounded&quot;:0};" vertex="1" parent="4NCx9sflUa4Rd-wHTN0A-2">
          <mxGeometry x="45" y="70" width="10" height="30" as="geometry" />
        </mxCell>
        <mxCell id="4NCx9sflUa4Rd-wHTN0A-12" value="" style="html=1;points=[[0,0,0,0,5],[0,1,0,0,-5],[1,0,0,0,5],[1,1,0,0,-5]];perimeter=orthogonalPerimeter;outlineConnect=0;targetShapes=umlLifeline;portConstraint=eastwest;newEdgeStyle={&quot;curved&quot;:0,&quot;rounded&quot;:0};" vertex="1" parent="4NCx9sflUa4Rd-wHTN0A-2">
          <mxGeometry x="45" y="130" width="10" height="20" as="geometry" />
        </mxCell>
        <mxCell id="4NCx9sflUa4Rd-wHTN0A-13" value="" style="html=1;points=[[0,0,0,0,5],[0,1,0,0,-5],[1,0,0,0,5],[1,1,0,0,-5]];perimeter=orthogonalPerimeter;outlineConnect=0;targetShapes=umlLifeline;portConstraint=eastwest;newEdgeStyle={&quot;curved&quot;:0,&quot;rounded&quot;:0};" vertex="1" parent="4NCx9sflUa4Rd-wHTN0A-2">
          <mxGeometry x="45" y="170" width="10" height="30" as="geometry" />
        </mxCell>
        <mxCell id="4NCx9sflUa4Rd-wHTN0A-3" value="Accede a la tienda en linea&amp;nbsp;" style="html=1;verticalAlign=bottom;endArrow=block;curved=0;rounded=0;" edge="1" parent="1">
          <mxGeometry width="80" relative="1" as="geometry">
            <mxPoint x="-730.5" y="170" as="sourcePoint" />
            <mxPoint x="-390.5" y="170" as="targetPoint" />
          </mxGeometry>
        </mxCell>
        <mxCell id="4NCx9sflUa4Rd-wHTN0A-4" value="Muestra catalogo de productos" style="html=1;verticalAlign=bottom;endArrow=block;curved=0;rounded=0;" edge="1" parent="1">
          <mxGeometry x="0.0559" width="80" relative="1" as="geometry">
            <mxPoint x="-390.5" y="200" as="sourcePoint" />
            <mxPoint x="-730.5" y="200" as="targetPoint" />
            <mxPoint x="1" as="offset" />
          </mxGeometry>
        </mxCell>
        <mxCell id="4NCx9sflUa4Rd-wHTN0A-5" value="Busca productos por nombre, categoría, color y talle" style="html=1;verticalAlign=bottom;endArrow=block;curved=0;rounded=0;" edge="1" parent="1">
          <mxGeometry width="80" relative="1" as="geometry">
            <mxPoint x="-730.5" y="230" as="sourcePoint" />
            <mxPoint x="-390.5" y="230" as="targetPoint" />
          </mxGeometry>
        </mxCell>
        <mxCell id="4NCx9sflUa4Rd-wHTN0A-6" value="Selecciona producto para ver detalles" style="html=1;verticalAlign=bottom;endArrow=block;curved=0;rounded=0;" edge="1" parent="1">
          <mxGeometry width="80" relative="1" as="geometry">
            <mxPoint x="-730.5" y="270" as="sourcePoint" />
            <mxPoint x="-390.5" y="270" as="targetPoint" />
          </mxGeometry>
        </mxCell>
        <mxCell id="4NCx9sflUa4Rd-wHTN0A-7" value="Muestra información detallada del producto" style="html=1;verticalAlign=bottom;endArrow=block;curved=0;rounded=0;" edge="1" parent="1">
          <mxGeometry width="80" relative="1" as="geometry">
            <mxPoint x="-390.5" y="300" as="sourcePoint" />
            <mxPoint x="-730.5" y="300" as="targetPoint" />
          </mxGeometry>
        </mxCell>
        <mxCell id="4NCx9sflUa4Rd-wHTN0A-8" value="Cliente" style="shape=umlActor;verticalLabelPosition=bottom;verticalAlign=top;html=1;" vertex="1" parent="1">
          <mxGeometry x="-745" y="350" width="30" height="40" as="geometry" />
        </mxCell>
        <mxCell id="4NCx9sflUa4Rd-wHTN0A-9" value="Sistema" style="html=1;whiteSpace=wrap;" vertex="1" parent="1">
          <mxGeometry x="-450" y="350" width="110" height="40" as="geometry" />
        </mxCell>
      </root>
    </mxGraphModel>
  </diagram>
</mxfile>
